<svg width="626" height="141" viewBox="0 0 626 141" fill="none" xmlns="http://www.w3.org/2000/svg">
<path d="M0 0H96.1348L103.101 42.2649L5.57303 14.3806L124 56.6455L110.067 141H0V0Z" fill="white"/>
<path d="M155.546 60.9999V16.1999H174.874C179.866 16.1999 183.727 17.2026 186.458 19.2079C189.231 21.2133 190.618 24.0506 190.618 27.7199C190.618 30.1519 190.042 32.1999 188.89 33.8639C187.781 35.5279 186.245 36.7866 184.282 37.6399C182.362 38.4933 180.25 38.9199 177.946 38.9199L179.034 37.3839C181.893 37.3839 184.346 37.8319 186.394 38.7279C188.485 39.5813 190.106 40.8826 191.258 42.6319C192.41 44.3386 192.986 46.4719 192.986 49.0319C192.986 52.8293 191.578 55.7733 188.762 57.8639C185.989 59.9546 181.786 60.9999 176.154 60.9999H155.546ZM160.282 57.0959H176.09C180.015 57.0959 183.023 56.4346 185.114 55.1119C187.205 53.7466 188.25 51.5919 188.25 48.6479C188.25 45.7466 187.205 43.6346 185.114 42.3119C183.023 40.9466 180.015 40.2639 176.09 40.2639H159.77V36.3599H174.554C178.138 36.3599 180.911 35.6773 182.874 34.3119C184.879 32.9466 185.882 30.9199 185.882 28.2319C185.882 25.5013 184.879 23.4746 182.874 22.1519C180.911 20.7866 178.138 20.1039 174.554 20.1039H160.282V57.0959Z" fill="white"/>
<path d="M203.796 60.9999V16.1999H208.532V56.9039H233.62V60.9999H203.796Z" fill="white"/>
<path d="M260.192 61.3839C256.822 61.3839 253.686 60.8293 250.784 59.7199C247.926 58.5679 245.43 56.9679 243.296 54.9199C241.206 52.8293 239.563 50.4186 238.368 47.6879C237.216 44.9146 236.64 41.8853 236.64 38.5999C236.64 35.3146 237.216 32.3066 238.368 29.5759C239.563 26.8026 241.206 24.3919 243.296 22.3439C245.43 20.2533 247.926 18.6533 250.784 17.5439C253.643 16.3919 256.779 15.8159 260.192 15.8159C263.563 15.8159 266.678 16.3919 269.536 17.5439C272.395 18.6533 274.87 20.2319 276.96 22.2799C279.094 24.3279 280.736 26.7386 281.888 29.5119C283.083 32.2853 283.68 35.3146 283.68 38.5999C283.68 41.8853 283.083 44.9146 281.888 47.6879C280.736 50.4613 279.094 52.8719 276.96 54.9199C274.87 56.9679 272.395 58.5679 269.536 59.7199C266.678 60.8293 263.563 61.3839 260.192 61.3839ZM260.192 57.1599C262.88 57.1599 265.355 56.7119 267.616 55.8159C269.92 54.8773 271.904 53.5759 273.568 51.9119C275.275 50.2053 276.598 48.2426 277.536 46.0239C278.475 43.7626 278.944 41.2879 278.944 38.5999C278.944 35.9119 278.475 33.4586 277.536 31.2399C276.598 28.9786 275.275 27.0159 273.568 25.3519C271.904 23.6453 269.92 22.3439 267.616 21.4479C265.355 20.5093 262.88 20.0399 260.192 20.0399C257.504 20.0399 255.008 20.5093 252.704 21.4479C250.4 22.3439 248.395 23.6453 246.688 25.3519C245.024 27.0159 243.702 28.9786 242.72 31.2399C241.782 33.4586 241.312 35.9119 241.312 38.5999C241.312 41.2453 241.782 43.6986 242.72 45.9599C243.702 48.2213 245.024 50.2053 246.688 51.9119C248.395 53.5759 250.4 54.8773 252.704 55.8159C255.008 56.7119 257.504 57.1599 260.192 57.1599Z" fill="white"/>
<path d="M313.752 61.3839C310.381 61.3839 307.267 60.8293 304.408 59.7199C301.549 58.5679 299.075 56.9679 296.984 54.9199C294.893 52.8719 293.251 50.4613 292.056 47.6879C290.904 44.9146 290.328 41.8853 290.328 38.5999C290.328 35.3146 290.904 32.2853 292.056 29.5119C293.251 26.7386 294.893 24.3279 296.984 22.2799C299.117 20.2319 301.613 18.6533 304.472 17.5439C307.331 16.3919 310.445 15.8159 313.816 15.8159C317.059 15.8159 320.109 16.3706 322.968 17.4799C325.827 18.5466 328.237 20.1679 330.2 22.3439L327.192 25.3519C325.357 23.4746 323.331 22.1306 321.112 21.3199C318.893 20.4666 316.504 20.0399 313.944 20.0399C311.256 20.0399 308.76 20.5093 306.456 21.4479C304.152 22.3439 302.147 23.6453 300.44 25.3519C298.733 27.0159 297.389 28.9786 296.408 31.2399C295.469 33.4586 295 35.9119 295 38.5999C295 41.2879 295.469 43.7626 296.408 46.0239C297.389 48.2426 298.733 50.2053 300.44 51.9119C302.147 53.5759 304.152 54.8773 306.456 55.8159C308.76 56.7119 311.256 57.1599 313.944 57.1599C316.504 57.1599 318.893 56.7333 321.112 55.8799C323.331 55.0266 325.357 53.6613 327.192 51.7839L330.2 54.7919C328.237 56.9679 325.827 58.6106 322.968 59.7199C320.109 60.8293 317.037 61.3839 313.752 61.3839Z" fill="white"/>
<path d="M344.392 49.8639L344.2 44.1039L371.336 16.1999H376.776L357 36.9359L354.312 39.8159L344.392 49.8639ZM340.296 60.9999V16.1999H345.032V60.9999H340.296ZM372.488 60.9999L353.16 38.7279L356.36 35.2719L378.12 60.9999H372.488Z" fill="white"/>
<path d="M397.21 61.3839C393.882 61.3839 390.682 60.8506 387.61 59.7839C384.581 58.6746 382.234 57.2666 380.57 55.5599L382.426 51.9119C384.005 53.4479 386.117 54.7493 388.762 55.8159C391.45 56.8399 394.266 57.3519 397.21 57.3519C400.026 57.3519 402.309 57.0106 404.058 56.3279C405.85 55.6026 407.152 54.6426 407.962 53.4479C408.816 52.2533 409.242 50.9306 409.242 49.4799C409.242 47.7306 408.73 46.3226 407.706 45.2559C406.725 44.1893 405.424 43.3573 403.802 42.7599C402.181 42.1199 400.389 41.5653 398.426 41.0959C396.464 40.6266 394.501 40.1359 392.538 39.6239C390.576 39.0693 388.762 38.3439 387.098 37.4479C385.477 36.5519 384.154 35.3786 383.13 33.9279C382.149 32.4346 381.658 30.4933 381.658 28.1039C381.658 25.8853 382.234 23.8586 383.386 22.0239C384.581 20.1466 386.394 18.6533 388.826 17.5439C391.258 16.3919 394.373 15.8159 398.17 15.8159C400.688 15.8159 403.184 16.1786 405.658 16.9039C408.133 17.5866 410.266 18.5466 412.058 19.7839L410.458 23.5599C408.538 22.2799 406.49 21.3413 404.314 20.7439C402.181 20.1466 400.112 19.8479 398.106 19.8479C395.418 19.8479 393.2 20.2106 391.45 20.9359C389.701 21.6613 388.4 22.6426 387.546 23.8799C386.736 25.0746 386.33 26.4399 386.33 27.9759C386.33 29.7253 386.821 31.1333 387.802 32.1999C388.826 33.2666 390.149 34.0986 391.77 34.6959C393.434 35.2933 395.248 35.8266 397.21 36.2959C399.173 36.7653 401.114 37.2773 403.034 37.8319C404.997 38.3866 406.789 39.1119 408.41 40.0079C410.074 40.8613 411.397 42.0133 412.378 43.4639C413.402 44.9146 413.914 46.8133 413.914 49.1599C413.914 51.3359 413.317 53.3626 412.122 55.2399C410.928 57.0746 409.093 58.5679 406.618 59.7199C404.186 60.8293 401.05 61.3839 397.21 61.3839Z" fill="white"/>
<path d="M432.312 60.9999V20.2959H416.568V16.1999H452.792V20.2959H437.048V60.9999H432.312Z" fill="white"/>
<path d="M477.531 61.3839C471.814 61.3839 467.313 59.7413 464.027 56.4559C460.742 53.1706 459.099 48.3066 459.099 41.8639V16.1999H463.835V41.6719C463.835 46.9626 465.03 50.8666 467.419 53.3839C469.809 55.9013 473.179 57.1599 477.531 57.1599C481.926 57.1599 485.318 55.9013 487.707 53.3839C490.097 50.8666 491.291 46.9626 491.291 41.6719V16.1999H495.899V41.8639C495.899 48.3066 494.257 53.1706 490.971 56.4559C487.729 59.7413 483.249 61.3839 477.531 61.3839Z" fill="white"/>
<path d="M510.171 60.9999V16.1999H528.411C533.19 16.1999 537.371 17.1599 540.955 19.0799C544.582 20.9573 547.398 23.5813 549.403 26.9519C551.408 30.3226 552.411 34.2053 552.411 38.5999C552.411 42.9946 551.408 46.8773 549.403 50.2479C547.398 53.6186 544.582 56.2639 540.955 58.1839C537.371 60.0613 533.19 60.9999 528.411 60.9999H510.171ZM514.907 56.9039H528.155C532.123 56.9039 535.558 56.1359 538.459 54.5999C541.403 53.0213 543.686 50.8666 545.307 48.1359C546.928 45.3626 547.739 42.1839 547.739 38.5999C547.739 34.9733 546.928 31.7946 545.307 29.0639C543.686 26.3333 541.403 24.1999 538.459 22.6639C535.558 21.0853 532.123 20.2959 528.155 20.2959H514.907V56.9039Z" fill="white"/>
<path d="M563.046 60.9999V16.1999H567.782V60.9999H563.046Z" fill="white"/>
<path d="M601.942 61.3839C598.572 61.3839 595.436 60.8293 592.534 59.7199C589.676 58.5679 587.18 56.9679 585.046 54.9199C582.956 52.8293 581.313 50.4186 580.118 47.6879C578.966 44.9146 578.39 41.8853 578.39 38.5999C578.39 35.3146 578.966 32.3066 580.118 29.5759C581.313 26.8026 582.956 24.3919 585.046 22.3439C587.18 20.2533 589.676 18.6533 592.534 17.5439C595.393 16.3919 598.529 15.8159 601.942 15.8159C605.313 15.8159 608.428 16.3919 611.286 17.5439C614.145 18.6533 616.62 20.2319 618.71 22.2799C620.844 24.3279 622.486 26.7386 623.638 29.5119C624.833 32.2853 625.43 35.3146 625.43 38.5999C625.43 41.8853 624.833 44.9146 623.638 47.6879C622.486 50.4613 620.844 52.8719 618.71 54.9199C616.62 56.9679 614.145 58.5679 611.286 59.7199C608.428 60.8293 605.313 61.3839 601.942 61.3839ZM601.942 57.1599C604.63 57.1599 607.105 56.7119 609.366 55.8159C611.67 54.8773 613.654 53.5759 615.318 51.9119C617.025 50.2053 618.348 48.2426 619.286 46.0239C620.225 43.7626 620.694 41.2879 620.694 38.5999C620.694 35.9119 620.225 33.4586 619.286 31.2399C618.348 28.9786 617.025 27.0159 615.318 25.3519C613.654 23.6453 611.67 22.3439 609.366 21.4479C607.105 20.5093 604.63 20.0399 601.942 20.0399C599.254 20.0399 596.758 20.5093 594.454 21.4479C592.15 22.3439 590.145 23.6453 588.438 25.3519C586.774 27.0159 585.452 28.9786 584.47 31.2399C583.532 33.4586 583.062 35.9119 583.062 38.5999C583.062 41.2453 583.532 43.6986 584.47 45.9599C585.452 48.2213 586.774 50.2053 588.438 51.9119C590.145 53.5759 592.15 54.8773 594.454 55.8159C596.758 56.7119 599.254 57.1599 601.942 57.1599Z" fill="white"/>
<path d="M167.787 100.36H189.291V108.68H167.787V100.36ZM168.555 125H158.187V80.1999H192.043V88.5199H168.555V125Z" fill="white"/>
<path d="M199.062 125V80.1999H209.43V125H199.062Z" fill="white"/>
<path d="M229.598 98.2479H251.166V106.312H229.598V98.2479ZM230.366 116.68H254.75V125H220.062V80.1999H253.918V88.5199H230.366V116.68Z" fill="white"/>
<path d="M262.999 125V80.1999H273.367V116.552H295.831V125H262.999Z" fill="white"/>
<path d="M301.624 125V80.1999H321.976C326.84 80.1999 331.128 81.1386 334.84 83.0159C338.552 84.8506 341.454 87.4319 343.544 90.7599C345.635 94.0879 346.68 98.0346 346.68 102.6C346.68 107.123 345.635 111.069 343.544 114.44C341.454 117.768 338.552 120.371 334.84 122.248C331.128 124.083 326.84 125 321.976 125H301.624ZM311.992 116.488H321.464C324.451 116.488 327.032 115.933 329.208 114.824C331.427 113.672 333.134 112.051 334.328 109.96C335.566 107.869 336.184 105.416 336.184 102.6C336.184 99.7412 335.566 97.2879 334.328 95.2399C333.134 93.1492 331.427 91.5493 329.208 90.4399C327.032 89.2879 324.451 88.7119 321.464 88.7119H311.992V116.488Z" fill="white"/>
<path d="M382.16 98.2479H403.728V106.312H382.16V98.2479ZM382.928 116.68H407.312V125H372.624V80.1999H406.48V88.5199H382.928V116.68Z" fill="white"/>
<path d="M415.562 125V80.1999H435.914C440.778 80.1999 445.066 81.1386 448.778 83.0159C452.49 84.8506 455.391 87.4319 457.482 90.7599C459.573 94.0879 460.618 98.0346 460.618 102.6C460.618 107.123 459.573 111.069 457.482 114.44C455.391 117.768 452.49 120.371 448.778 122.248C445.066 124.083 440.778 125 435.914 125H415.562ZM425.93 116.488H435.402C438.389 116.488 440.97 115.933 443.146 114.824C445.365 113.672 447.071 112.051 448.266 109.96C449.503 107.869 450.122 105.416 450.122 102.6C450.122 99.7412 449.503 97.2879 448.266 95.2399C447.071 93.1492 445.365 91.5493 443.146 90.4399C440.97 89.2879 438.389 88.7119 435.402 88.7119H425.93V116.488Z" fill="white"/>
<path d="M468.437 125V80.1999H478.805V125H468.437Z" fill="white"/>
<path d="M498.717 125V88.6479H484.381V80.1999H523.421V88.6479H509.085V125H498.717Z" fill="white"/>
<path d="M550.134 125.768C546.593 125.768 543.308 125.192 540.278 124.04C537.292 122.888 534.689 121.267 532.47 119.176C530.294 117.085 528.588 114.632 527.35 111.816C526.156 109 525.558 105.928 525.558 102.6C525.558 99.2719 526.156 96.1999 527.35 93.3839C528.588 90.5679 530.316 88.1146 532.534 86.0239C534.753 83.9333 537.356 82.3119 540.342 81.1599C543.329 80.0079 546.572 79.4319 550.07 79.4319C553.612 79.4319 556.854 80.0079 559.798 81.1599C562.785 82.3119 565.366 83.9333 567.542 86.0239C569.761 88.1146 571.489 90.5679 572.726 93.3839C573.964 96.1573 574.582 99.2292 574.582 102.6C574.582 105.928 573.964 109.021 572.726 111.88C571.489 114.696 569.761 117.149 567.542 119.24C565.366 121.288 562.785 122.888 559.798 124.04C556.854 125.192 553.633 125.768 550.134 125.768ZM550.07 116.936C552.076 116.936 553.91 116.595 555.574 115.912C557.281 115.229 558.774 114.248 560.054 112.968C561.334 111.688 562.316 110.173 562.998 108.424C563.724 106.675 564.086 104.733 564.086 102.6C564.086 100.467 563.724 98.5253 562.998 96.7759C562.316 95.0266 561.334 93.5119 560.054 92.2319C558.817 90.9519 557.345 89.9706 555.638 89.2879C553.932 88.6053 552.076 88.2639 550.07 88.2639C548.065 88.2639 546.209 88.6053 544.502 89.2879C542.838 89.9706 541.366 90.9519 540.086 92.2319C538.806 93.5119 537.804 95.0266 537.078 96.7759C536.396 98.5253 536.054 100.467 536.054 102.6C536.054 104.691 536.396 106.632 537.078 108.424C537.804 110.173 538.785 111.688 540.022 112.968C541.302 114.248 542.796 115.229 544.502 115.912C546.209 116.595 548.065 116.936 550.07 116.936Z" fill="white"/>
<path d="M582.374 125V80.1999H601.766C605.777 80.1999 609.233 80.8612 612.134 82.1839C615.036 83.4639 617.276 85.3199 618.854 87.7519C620.433 90.1839 621.222 93.0853 621.222 96.4559C621.222 99.7839 620.433 102.664 618.854 105.096C617.276 107.485 615.036 109.32 612.134 110.6C609.233 111.88 605.777 112.52 601.766 112.52H588.134L592.742 107.976V125H582.374ZM610.854 125L599.654 108.744H610.726L622.054 125H610.854ZM592.742 109.128L588.134 104.264H601.19C604.39 104.264 606.78 103.581 608.358 102.216C609.937 100.808 610.726 98.8879 610.726 96.4559C610.726 93.9812 609.937 92.0613 608.358 90.6959C606.78 89.3306 604.39 88.6479 601.19 88.6479H588.134L592.742 83.7199V109.128Z" fill="white"/>
</svg>
